<?xml version="1.0" standalone="no"?>
<!DOCTYPE svg PUBLIC "-//W3C//DTD SVG 20010904//EN"
 "http://www.w3.org/TR/2001/REC-SVG-20010904/DTD/svg10.dtd">
<svg version="1.0" xmlns="http://www.w3.org/2000/svg"
 width="257.000000pt" height="234.000000pt" viewBox="0 0 257.000000 234.000000"
 preserveAspectRatio="xMidYMid meet">

<g transform="translate(0.000000,234.000000) scale(0.100000,-0.100000)"
fill="#000000" stroke="none">
<path d="M925 2123 c-79 -11 -203 -46 -269 -77 -68 -31 -196 -111 -196 -121 0
-3 241 -5 535 -5 l535 0 32 29 c28 25 33 36 33 76 0 40 -5 51 -33 76 l-32 29
-288 -1 c-158 -1 -300 -4 -317 -6z"/>
<path d="M1639 1671 c-24 -24 -29 -38 -29 -76 0 -38 5 -52 29 -76 l29 -29 247
0 c272 0 292 4 315 60 18 43 6 100 -25 128 -26 22 -31 22 -281 22 l-256 0 -29
-29z"/>
<path d="M160 833 c0 -5 21 -51 48 -103 l47 -95 963 0 964 0 29 33 c33 37 37
77 14 122 -8 16 -24 34 -34 40 -23 12 -2031 15 -2031 3z"/>
<path d="M1639 381 c-39 -39 -40 -96 -3 -140 l26 -31 153 0 c151 0 152 0 179
26 40 41 39 104 -2 147 l-26 27 -149 0 -149 0 -29 -29z"/>
<path d="M2285 387 c-20 -16 -28 -35 -32 -69 -5 -42 -3 -50 25 -78 25 -24 39
-30 75 -30 38 0 49 5 71 31 58 69 15 169 -73 169 -27 0 -48 -7 -66 -23z"/>
</g>
</svg>
